# xmcd CD database file
#
# Track frame offsets:
#	150
#	15926
#	33812
#	51283
#	64736
#	82826
#	96731
#	112546
#	128029
#	143367
#	161120
#	177438
#	194895
#	213398
#	230802
#	248901
#	265916
#	283462
#	301218
#	313862
#	331846
#
# Disc length: 4720 seconds
#
# Revision: 0
# Processed by: cddbd v1.5.2PL0 Copyright (c) Steve Scherf et al.
# Submitted via: CDex 1.79
#
DISCID=2d126e15
DTITLE=Various Artist - Now That Is What I Call Love - Disc 1
DYEAR=2016
DGENRE=Pop Romance
TTITLE0=James Arthur - Say You Won't Let Go
TTITLE1=Ellie Goulding - Love Me Like You Do
TTITLE2=Justin Bieber  - Love Yourself 
TTITLE3=John Legend - All Of Me
TTITLE4=Jason Mraz - I'm Yours 
TTITLE5=Timbaland feat OneRepublic - Apologize
TTITLE6=Jonas Blue feat. Dakota - Fast Car
TTITLE7=Jason Derulo - Want To Want Me
TTITLE8=ZAYN - PILLOWTALK
TTITLE9=Labrinth feat. Emeli Sande - Beneath Your Beautiful
TTITLE10=Bruno Mars - Just The Way You Are
TTITLE11=Paloma Faith - Only Love Can Hurt Like This
TTITLE12=Little Mix feat. Jason Derulo - Secret Love Song 
TTITLE13=Miley Cyrus - The Climb 
TTITLE14=Nelly Furtado - I'm Like A Bird
TTITLE15=Birdy - Wings
TTITLE16=Keane - Somewhere Only We Know
TTITLE17=Lady Antebellum - Need You Now 
TTITLE18=The Kooks - She Moves In Her Own Way
TTITLE19=James Bay - Hold Back The River 
TTITLE20=Coldplay - Fix You
EXTD=YEAR: 2016
EXTT0=
EXTT1=
EXTT2=
EXTT3=
EXTT4=
EXTT5=
EXTT6=
EXTT7=
EXTT8=
EXTT9=
EXTT10=
EXTT11=
EXTT12=
EXTT13=
EXTT14=
EXTT15=
EXTT16=
EXTT17=
EXTT18=
EXTT19=
EXTT20=
PLAYORDER=
